:SAMPLES-PER-SECOND 30
:FULLY-SPECIFIED
:DEGREES
436
root  -5.46494 37.8129 -6.85301 165.896 -58.8729 -171.14
RightUpLeg  -14.0927 -11.2332 12.8466
RightLeg  25.5938 -8.94257 -3.18336
RightFoot  -6.83501 0.436248 -12.2035
RightToes  5.82063e-011 0 -3.6325e-017
Spine  3.39033 -6.70486 0.197366
Spine1  4.5649 -8.76271 14.5514
HEad  -21.283 -30.5283 5.59977
LeftShoulder1  0.342866 2.55177 -29.9068
LeftArm  -1.32549 -8.22515 -44.9245
LeftForeArm  39.5213 2.23144 -10.3567
LeftHand  -0.285671 9.14445 -6.91547
RightShoulder  -0.787758 -5.86213 26.7772
RightArm  3.4547 -15.0597 41.2733
RightForeArm  4.53544 15.2 3.27822
RightHand  -0.25959 4.63323 -3.299
LeftUpLeg  1.22164 18.3426 7.92286
LeftLeg  60.0473 -8.60628 -15.1914
LeftFoot  8.58905 3.45889 -19.7644
LeftToes  1.68253e-010 -3.2327e-011 -2.69673e-012
437
root  -6.50517 37.9702 -6.96224 167.911 -52.9133 -173.124
RightUpLeg  -12.1477 -7.78444 12.4433
RightLeg  25.4935 -6.5374 -2.37606
RightFoot  -7.68742 0.323828 -11.7268
RightToes  5.82063e-011 0 -3.6325e-017
Spine  3.09634 -6.36535 1.10052
Spine1  5.27771 -8.16577 13.387
HEad  -21.8061 -36.2847 7.74487
LeftShoulder1  0.256728 2.79173 -29.9374
LeftArm  -2.11896 -2.38527 -42.4498
LeftForeArm  38.1257 -1.26864 -9.9849
LeftHand  -0.262713 9.06701 -6.32986
RightShoulder  -0.764221 -5.81451 26.4396
RightArm  6.01864 -13.3213 42.4109
RightForeArm  7.17233 18.2632 3.79497
RightHand  -0.257284 5.10373 -3.14763
LeftUpLeg  -2.87804 18.6983 8.04561
LeftLeg  63.7992 -6.43742 -13.4129
LeftFoot  5.7116 2.54805 -17.1537
LeftToes  1.68253e-010 -3.2327e-011 -2.69673e-012
438
root  -7.54071 38.171 -7.01789 170.007 -46.4797 -174.783
RightUpLeg  -10.6552 -4.67837 11.7535
RightLeg  24.9649 -3.30921 -1.13144
RightFoot  -8.04784 0.273232 -11.342
RightToes  5.82063e-011 0 -3.6325e-017
Spine  2.70713 -5.97455 2.06519
Spine1  5.52346 -7.51337 12.2205
HEad  -21.7043 -41.7817 8.91855
LeftShoulder1  0.224261 2.87977 -29.8357
LeftArm  -3.02086 4.15407 -40.7603
LeftForeArm  32.1243 -4.02067 -9.38951
LeftHand  -0.169782 8.63964 -4.12484
RightShoulder  -0.762321 -5.83913 25.9985
RightArm  9.20396 -11.386 43.285
RightForeArm  9.02409 21.4186 4.24279
RightHand  -0.277683 5.06421 -3.38508
LeftUpLeg  -6.9297 17.9981 7.86229
LeftLeg  64.778 -4.56794 -9.8993
LeftFoot  4.92766 2.09799 -14.8183
LeftToes  1.68253e-010 -3.2327e-011 -2.69673e-012
439
root  -8.58066 38.3926 -7.03604 171.663 -39.5809 -176.283
RightUpLeg  -9.10673 -2.57691 10.6388
RightLeg  24.3326 1.29819 0.480243
RightFoot  -8.24144 0.244478 -11.0411
RightToes  5.82063e-011 0 -3.6325e-017
Spine  2.82242 -5.48479 2.90144
Spine1  5.45232 -6.76535 10.9069
HEad  -22.2048 -46.5726 9.86079
LeftShoulder1  0.276545 2.72374 -29.3235
LeftArm  -4.11725 10.452 -40.4954
LeftForeArm  24.4278 -5.50225 -8.61836
LeftHand  -0.105742 8.41848 -2.17762
RightShoulder  -0.714976 -5.72227 25.564
RightArm  10.5618 -9.86349 43.7889
RightForeArm  10.3948 25.2451 4.85343
RightHand  -0.273015 4.78625 -3.40817
LeftUpLeg  -10.0132 16.3225 7.79781
LeftLeg  63.5523 -2.66132 -5.23074
LeftFoot  3.50392 1.48045 -11.4736
LeftToes  1.68253e-010 -3.2327e-011 -2.69673e-012
440
root  -9.60541 38.6138 -7.04596 173.123 -32.7972 -177.549
RightUpLeg  -8.04593 -0.848402 9.21442
RightLeg  23.8904 6.24157 2.0689
RightFoot  -8.26089 0.230397 -10.5994
RightToes  5.82063e-011 0 -3.6325e-017
Spine  3.20806 -5.01904 2.92281
Spine1  5.15606 -6.29978 10.5282
HEad  -23.799 -50.6142 11.5471
LeftShoulder1  0.296125 2.66674 -29.2552
LeftArm  -6.13476 16.0973 -41.1365
LeftForeArm  18.5333 -6.85835 -7.4624
LeftHand  -0.0840527 8.2914 -1.47522
RightShoulder  -0.701353 -5.7008 25.2472
RightArm  11.7199 -7.87224 43.559
RightForeArm  9.95797 28.7829 5.6966
RightHand  -0.284503 4.69464 -3.56571
LeftUpLeg  -12.2468 13.9612 8.15008
LeftLeg  60.3969 -0.79178 -0.988149
LeftFoot  1.23142 0.852169 -7.78255
LeftToes  1.68253e-010 -3.2327e-011 -2.69673e-012
441
root  -10.6052 38.831 -7.09128 174.036 -26.2775 -178.493
RightUpLeg  -6.85614 1.309 7.7804
RightLeg  23.1815 10.7118 3.28046
RightFoot  -8.26767 0.212568 -9.9579
RightToes  5.82063e-011 0 -3.6325e-017
Spine  3.54145 -4.77826 2.37822
Spine1  5.31368 -6.22754 10.3795
HEad  -25.735 -52.6597 13.2421
LeftShoulder1  0.273815 2.72941 -29.2418
LeftArm  -8.24033 20.1606 -42.3885
LeftForeArm  15.19 -7.38403 -6.35007
LeftHand  -0.0970234 8.23556 -2.03637
RightShoulder  -0.704368 -5.71824 25.1263
RightArm  11.8984 -5.64854 43.2495
RightForeArm  9.90938 31.9533 6.48104
RightHand  -0.298138 5.06391 -3.61055
LeftUpLeg  -13.0886 10.7293 9.15116
LeftLeg  55.3819 1.27561 2.47511
LeftFoot  -1.11746 0.424615 -4.68996
LeftToes  1.68253e-010 -3.2327e-011 -2.69673e-012
442
root  -11.5852 38.9916 -7.11773 174.943 -19.788 -179.1
RightUpLeg  -6.41835 4.8384 6.55772
RightLeg  22.7323 13.9559 3.97601
RightFoot  -8.41836 0.165179 -8.67981
RightToes  5.82063e-011 0 -3.6325e-017
Spine  3.80995 -4.58446 2.39157
Spine1  5.20172 -6.0321 9.52943
HEad  -26.8446 -53.9488 14.5095
LeftShoulder1  0.268747 2.73405 -28.8153
LeftArm  -9.2136 22.5007 -43.9242
LeftForeArm  16.0865 -6.69503 -5.94204
LeftHand  -0.0983344 9.08938 -1.42739
RightShoulder  -0.748098 -5.83664 25.4158
RightArm  10.6393 -4.00761 42.8563
RightForeArm  10.2861 35.1596 7.31105
RightHand  -0.350077 5.59191 -4.01453
LeftUpLeg  -13.1527 6.82342 10.6097
LeftLeg  48.8215 2.56753 3.59388
LeftFoot  -2.55654 0.214546 -2.63234
LeftToes  1.68253e-010 -3.2327e-011 -2.69673e-012
443
root  -12.5541 39.1096 -7.16519 175.698 -13.9201 -179.576
RightUpLeg  -6.41377 8.76898 5.12976
RightLeg  22.6053 16.1322 4.71
RightFoot  -8.62927 0.122121 -7.59556
RightToes  5.82063e-011 0 -3.6325e-017
Spine  4.17586 -4.50386 1.58024
Spine1  5.05406 -6.21674 9.93504
HEad  -27.5102 -53.9543 14.9242
LeftShoulder1  0.205989 2.92272 -29.317
LeftArm  -8.54836 22.6202 -44.366
LeftForeArm  19.6732 -4.95123 -6.23567
LeftHand  -0.115388 8.58618 -2.40426
RightShoulder  -0.737063 -5.83288 24.9814
RightArm  8.81312 -2.98794 42.6414
RightForeArm  9.94776 37.9035 8.11961
RightHand  -0.408395 5.89483 -4.52184
LeftUpLeg  -12.2137 1.35407 12.1798
LeftLeg  40.6408 2.2124 2.44531
LeftFoot  -4.15123 0.217027 -3.0801
LeftToes  1.68253e-010 -3.2327e-011 -2.69673e-012
